<svg width="238" height="239" xmlns="http://www.w3.org/2000/svg" xmlns:xlink="http://www.w3.org/1999/xlink" xml:space="preserve" overflow="hidden"><defs><clipPath id="clip0"><rect x="658" y="132" width="238" height="239"/></clipPath></defs><g clip-path="url(#clip0)" transform="translate(-658 -132)"><path d="M187.227 10.8984C179.958 3.6295 171.211 0 160.977 0L37.1478 0C26.9138 0 18.1673 3.6295 10.8984 10.8984 3.6295 18.1673 0 26.9138 0 37.1478L0 160.977C0 171.211 3.6295 179.958 10.8984 187.227 18.1673 194.496 26.9138 198.125 37.1478 198.125L66.045 198.125C67.9292 198.125 69.3473 198.056 70.2993 197.927 71.4068 197.705 72.4066 197.114 73.1354 196.251 74.0775 195.259 74.5535 193.821 74.5535 191.937L74.4841 183.161C74.4444 177.568 74.4246 173.145 74.4246 169.872L71.4496 170.388C69.5654 170.735 67.1854 170.884 64.2997 170.844 61.2918 170.789 58.2935 170.487 55.335 169.942 52.1855 169.361 49.2207 168.034 46.6877 166.074 44.0349 164.067 42.0563 161.301 41.0153 158.141L39.7262 155.166C38.6396 152.82 37.2745 150.612 35.6603 148.591 33.8158 146.182 31.9416 144.555 30.0475 143.693L29.155 143.048C28.5326 142.603 27.9666 142.083 27.4692 141.501 26.9941 140.96 26.6029 140.353 26.3089 139.696 26.0511 139.091 26.2693 138.595 26.9535 138.209 27.6477 137.812 28.8873 137.624 30.702 137.624L33.2803 138.02C34.9959 138.357 37.128 139.389 39.6568 141.104 42.2158 142.849 44.3536 145.142 45.9142 147.818 47.8975 151.338 50.2775 154.026 53.074 155.88 55.8705 157.725 58.6868 158.657 61.523 158.657 64.3592 158.657 66.8086 158.439 68.8812 158.012 70.8854 157.598 72.8331 156.945 74.6824 156.068 75.4559 150.317 77.5583 145.874 80.9993 142.78 76.5406 142.343 72.1215 141.567 67.7804 140.46 63.5439 139.295 59.4697 137.607 55.6523 135.432 51.6583 133.257 48.1305 130.319 45.2696 126.785 42.5227 123.343 40.2617 118.831 38.4965 113.248 36.7412 107.655 35.8587 101.2 35.8587 93.891 35.8587 83.4884 39.2502 74.6328 46.0431 67.3143 42.8698 59.5 43.1673 50.7238 46.9455 41.0153 49.4445 40.2319 53.1434 40.817 58.0423 42.7508 62.9411 44.6845 66.5309 46.3406 68.8118 47.7091 71.0926 49.0974 72.9173 50.2577 74.2957 51.1998 82.3577 48.9561 90.6892 47.8284 99.0576 47.8479 107.576 47.8479 115.827 48.9685 123.829 51.1998L128.728 48.1058C132.497 45.8433 136.471 43.9439 140.599 42.4334 145.16 40.7079 148.631 40.2418 151.051 41.0153 154.918 50.7337 155.255 59.5 152.072 67.3242 158.865 74.6328 162.266 83.4884 162.266 93.9009 162.266 101.21 161.384 107.685 159.619 113.308 157.863 118.941 155.583 123.453 152.786 126.854 149.99 130.255 146.509 133.102 142.344 135.432 138.179 137.752 134.133 139.428 130.216 140.46 125.875 141.571 121.456 142.35 116.997 142.79 121.459 146.658 123.701 152.756 123.701 161.096L123.701 191.937C123.701 193.395 123.909 194.575 124.345 195.477 124.751 196.356 125.494 197.032 126.408 197.352 127.36 197.689 128.193 197.907 128.927 197.986 129.66 198.085 130.712 198.115 132.08 198.115L160.977 198.115C171.211 198.115 179.958 194.486 187.227 187.217 194.486 179.958 198.125 171.201 198.125 160.967L198.125 37.1478C198.125 26.9138 194.486 18.1673 187.217 10.8984Z" fill="#120059" transform="matrix(1 0 0 1.0042 677.833 151.917)"/></g></svg>